
<?xml version="1.0" standalone="no"?>
<!DOCTYPE svg PUBLIC "-//W3C//DTD SVG 20010904//EN"
 "http://www.w3.org/TR/2001/REC-SVG-20010904/DTD/svg10.dtd">

<svg version="1.0" xmlns="http://www.w3.org/2000/svg"
 width="668.000000pt" height="744.000000pt" viewBox="0 0 668.000000 744.000000"
 preserveAspectRatio="xMidYMid meet">

<g transform="translate(0.000000,744.000000) scale(0.100000,-0.100000)"
fill="#000000" stroke="none">
<path d="M0 3720 l0 -3720 3340 0 3340 0 0 3720 0 3720 -3340 0 -3340 0 0
-3720z m2696 3009 c41 -16 53 -26 63 -55 12 -33 11 -36 -23 -74 -20 -22 -36
-44 -36 -50 0 -20 35 -27 79 -16 42 11 45 15 62 65 30 86 56 121 90 121 17 0
44 8 62 17 43 23 126 20 201 -6 33 -12 67 -21 78 -21 10 0 36 -16 57 -35 30
-27 55 -39 101 -49 38 -7 66 -19 72 -29 5 -10 26 -28 46 -41 l37 -23 52 29
c175 99 390 65 492 -78 21 -28 42 -44 70 -53 32 -9 44 -19 56 -46 7 -19 54
-77 104 -129 68 -72 92 -104 97 -131 6 -36 1 -100 -11 -141 -9 -30 23 -57 86
-73 44 -11 53 -18 66 -48 43 -103 36 -223 -14 -263 -34 -26 -37 -26 -48 13
-13 43 -51 60 -205 91 -155 30 -299 49 -645 81 -148 14 -298 28 -332 32 -50 5
-69 2 -105 -16 -24 -11 -51 -21 -59 -21 -8 0 -29 -29 -48 -65 -40 -78 -75
-110 -130 -119 -23 -3 -41 -11 -41 -16 0 -19 -75 -93 -107 -107 -47 -19 -110
-16 -160 8 -60 29 -83 62 -83 116 0 50 -25 113 -46 113 -7 0 -48 -18 -91 -41
-49 -26 -96 -43 -129 -46 l-51 -5 -81 71 c-68 61 -85 71 -106 65 -16 -4 -28
-15 -32 -30 -5 -19 -14 -24 -62 -29 -95 -11 -249 -44 -308 -66 -48 -18 -59
-27 -75 -63 -22 -50 -24 -122 -4 -231 17 -95 19 -161 5 -170 -6 -4 -24 7 -41
24 -17 17 -37 31 -45 31 -16 0 -44 -57 -44 -89 0 -10 -9 -29 -20 -42 -24 -29
-24 -24 -5 31 23 65 19 196 -10 335 -51 244 -43 348 33 436 23 27 43 64 50 94
7 28 20 61 28 73 26 40 115 74 210 80 l84 5 1 -34 c0 -19 4 -43 8 -54 7 -18 9
-18 34 7 14 14 29 39 32 55 18 84 30 116 53 136 13 12 35 32 48 44 13 12 34
25 46 29 13 3 45 17 71 31 39 19 48 28 45 46 -3 20 -8 22 -73 22 -66 0 -70 1
-73 23 -5 31 22 59 68 73 26 8 42 21 55 46 43 80 175 163 285 181 72 12 153 5
216 -19z m793 -1009 c35 -5 66 -11 68 -14 3 -3 10 -63 16 -134 9 -115 9 -134
-7 -178 -22 -60 -23 -82 -2 -163 21 -78 9 -155 -29 -191 -27 -25 -25 -37 10
-50 32 -12 46 -106 45 -290 0 -80 4 -179 10 -220 16 -107 24 -1482 10 -1592
-30 -229 -31 -272 -10 -516 17 -200 19 -289 15 -567 -5 -281 -3 -334 9 -350
12 -16 14 -43 9 -140 l-6 -120 42 -33 c71 -57 64 -61 -124 -82 -140 -16 -522
-22 -835 -13 -283 8 -284 8 -205 22 44 7 123 15 175 18 94 5 130 19 130 48 0
16 -30 41 -57 47 -11 3 -41 1 -65 -4 -23 -5 -155 -13 -293 -17 -137 -5 -258
-12 -267 -16 -14 -5 -15 -11 -7 -26 16 -30 55 -51 111 -59 l53 -8 -55 -1 c-63
-1 -177 -26 -197 -43 -21 -17 -16 -26 30 -50 41 -23 46 -23 347 -20 168 1 451
10 630 18 281 14 807 26 980 24 30 0 110 7 176 16 67 9 137 14 157 10 36 -7
87 -40 87 -57 0 -5 -18 -18 -39 -29 -37 -18 -65 -20 -398 -25 -197 -2 -560
-11 -808 -20 -494 -16 -1142 -19 -1247 -6 -64 9 -130 34 -171 65 -42 32 -86
336 -74 508 4 61 2 80 -10 90 -13 11 -14 46 -8 275 6 232 5 266 -9 287 -14 22
-15 77 -13 468 1 342 -1 455 -11 495 -10 37 -11 57 -3 71 8 14 6 40 -5 93 -13
59 -14 99 -8 199 10 144 10 232 -4 720 -5 195 -15 391 -22 435 -12 82 -10 449
3 461 4 4 13 2 20 -5 16 -13 30 -385 31 -861 1 -195 5 -316 14 -355 17 -83 19
-201 8 -533 -10 -304 -8 -319 40 -340 22 -11 23 -9 30 36 4 26 3 150 -2 277
-4 126 -9 381 -9 565 -1 239 -5 351 -15 389 -10 42 -11 91 -4 210 15 258 12
365 -10 389 -11 13 -15 26 -10 34 4 7 7 153 5 325 -1 172 0 313 3 313 3 0 13
-15 23 -32 16 -29 18 -65 20 -298 1 -146 1 -276 1 -290 -3 -158 1 -281 11
-355 7 -49 16 -281 22 -515 5 -234 13 -465 18 -515 5 -49 6 -184 3 -298 -3
-144 -1 -230 7 -278 11 -61 11 -73 -3 -94 -14 -22 -22 -24 -55 -19 l-38 6 -14
-48 c-18 -63 -16 -280 7 -619 12 -176 15 -309 10 -450 -6 -216 3 -343 32 -428
21 -59 36 -64 66 -24 19 25 21 42 21 145 0 228 -13 753 -19 759 -3 4 -2 11 3
17 6 7 4 50 -6 111 -18 122 -13 337 11 442 15 60 21 73 44 83 15 6 41 22 57
35 l30 25 1 237 c0 131 1 261 3 288 4 84 19 23 20 -82 1 -50 6 -104 11 -119
10 -26 11 -26 30 -9 11 10 24 34 30 54 13 46 12 190 -1 311 -10 93 -3 357 10
345 3 -4 8 -140 11 -303 4 -266 7 -301 24 -331 l19 -35 20 25 c19 23 20 33 13
324 -3 165 -10 357 -15 426 -8 101 -13 389 -10 528 1 13 -6 31 -15 39 -22 22
-50 5 -54 -34 -5 -41 -20 -52 -27 -21 -4 14 -16 34 -27 44 -19 17 -20 17 -33
0 -12 -16 -13 -16 -19 -1 -4 10 -6 77 -5 150 1 92 -3 139 -12 155 -8 15 -13
55 -12 101 0 63 6 88 28 134 l28 56 -26 22 c-24 21 -25 24 -30 191 -6 211 1
244 58 263 23 8 68 12 107 10 54 -3 72 -8 93 -28 24 -22 25 -28 25 -134 -1
-70 -6 -126 -15 -151 -13 -36 -12 -46 5 -103 26 -85 27 -226 1 -300 -18 -52
-18 -53 3 -95 20 -39 21 -55 18 -252 -2 -160 1 -241 14 -338 15 -104 16 -137
6 -182 -8 -39 -8 -64 -1 -83 6 -17 8 -72 3 -147 -5 -104 -4 -126 10 -154 17
-32 18 -32 37 -15 36 33 41 83 23 232 -14 115 -16 200 -11 531 4 335 3 400
-10 438 -11 30 -13 60 -9 91 8 54 8 42 0 192 -4 82 -2 124 7 145 l12 30 8 -40
c14 -74 42 -428 50 -640 10 -248 10 -224 3 -305 -5 -55 -2 -70 14 -90 l19 -24
18 37 c13 29 16 49 10 85 -4 26 -5 72 -3 102 6 101 3 423 -6 605 -5 99 -6 201
-2 226 6 40 11 48 42 63 l35 16 -25 31 c-54 64 -54 167 0 191 21 10 30 3 111
-79 86 -88 154 -133 201 -133 63 0 193 86 227 150 9 18 28 29 61 38 59 16 122
77 150 145 l19 47 95 0 c52 0 124 -5 159 -10z m200 -97 c16 -80 14 -117 -8
-144 -11 -13 -22 -21 -25 -18 -22 21 -28 181 -10 211 15 23 32 3 43 -49z m236
-10 c4 -21 4 -92 0 -158 -5 -79 -3 -140 4 -176 7 -34 8 -65 3 -79 l-9 -24 -13
24 c-8 14 -17 45 -21 70 -9 50 10 380 22 380 4 0 10 -17 14 -37z m1432 -99
c128 -33 423 -204 423 -245 0 -12 15 -35 34 -53 26 -24 40 -51 60 -116 31
-102 51 -196 66 -310 6 -47 19 -121 30 -165 14 -62 16 -91 9 -129 -5 -27 -18
-113 -30 -190 -21 -145 -40 -196 -89 -241 -18 -16 -23 -17 -30 -5 -17 27 -10
65 20 113 44 70 64 222 57 437 -6 185 -24 275 -78 381 -69 137 -151 238 -261
322 -57 42 -84 56 -120 61 -27 3 -70 17 -97 30 -34 18 -77 28 -147 35 -177 18
-233 -6 -369 -154 -84 -91 -149 -144 -162 -131 -3 3 4 39 17 78 27 84 45 104
173 188 172 115 311 141 494 94z m-1035 -74 c5 -120 -1 -314 -9 -306 -5 4 -11
58 -15 119 -4 62 -8 119 -8 127 -3 38 14 150 21 143 4 -4 9 -42 11 -83z m74
43 c-5 -17 -3 -29 6 -34 10 -7 13 -76 15 -321 1 -172 4 -349 7 -393 6 -79 6
-80 -11 -50 -21 38 -28 156 -15 296 6 75 5 138 -4 220 -16 146 -18 309 -3 309
7 0 9 -10 5 -27z m-261 -260 c0 -71 -4 -116 -11 -123 -20 -20 -33 74 -27 189
6 102 6 104 22 75 12 -22 16 -57 16 -141z m1113 67 c94 -11 99 -13 177 -65
150 -101 195 -142 220 -200 52 -116 60 -166 60 -380 0 -174 -3 -214 -23 -304
-41 -183 -73 -262 -139 -343 -33 -40 -93 -118 -133 -173 -41 -55 -111 -136
-157 -181 -46 -44 -83 -88 -83 -97 0 -9 -21 -36 -47 -59 -70 -65 -239 -296
-264 -362 -13 -32 -35 -68 -53 -83 -37 -31 -45 -17 -21 40 9 23 21 51 25 62
15 40 236 323 443 569 117 138 231 274 254 301 45 55 87 146 110 240 8 33 22
73 29 89 21 41 37 223 31 346 -4 83 -10 118 -30 165 -14 33 -33 81 -43 107
-10 30 -32 62 -59 85 -118 106 -140 120 -239 153 -90 30 -104 32 -153 23 -41
-7 -58 -7 -71 3 -21 16 -8 42 29 61 29 15 19 15 137 3z m-1554 -32 c17 -24 20
-98 8 -178 l-7 -45 -18 26 c-22 32 -32 111 -23 173 8 51 17 57 40 24z m-1839
-388 c7 -213 6 -234 -8 -220 -23 22 -29 125 -20 370 9 258 18 212 28 -150z
m2076 198 c14 -27 12 -157 -3 -175 -18 -22 -28 -14 -28 20 0 17 -5 50 -10 72
-18 77 12 138 41 83z m614 -72 c7 -85 1 -141 -18 -164 -19 -23 -27 8 -27 104
0 111 7 154 25 148 9 -4 16 -35 20 -88z m-721 -29 c0 -15 -1 -93 -3 -174 -2
-144 -2 -147 -19 -118 -18 33 -30 226 -18 291 9 44 41 45 40 1z m-117 -77 c15
-58 16 -168 2 -209 -9 -27 -14 -30 -26 -19 -28 23 -34 60 -27 170 6 92 9 108
23 106 10 -2 21 -21 28 -48z m627 -41 c9 -91 7 -189 -4 -189 -24 0 -32 44 -25
146 4 57 11 104 15 104 4 0 10 -28 14 -61z m366 -129 c0 -128 -17 -277 -31
-263 -18 18 -33 152 -23 203 8 38 8 53 -1 60 -9 8 -7 23 9 65 34 89 46 73 46
-65z m-150 -600 c5 -305 14 -602 20 -660 7 -73 7 -121 0 -156 -8 -36 -8 -71
-1 -115 14 -81 14 -169 1 -169 -5 0 -17 11 -26 25 -14 21 -19 130 -12 270 1 6
-5 91 -13 190 -16 204 -20 1170 -5 1220 l9 30 9 -40 c4 -22 13 -290 18 -595z
m-2492 35 c0 -94 -3 -148 -8 -130 -4 17 -8 107 -8 200 0 115 3 157 9 130 4
-22 8 -112 7 -200z m-75 -510 c-7 -133 -7 -137 -15 -75 -10 86 2 301 14 250 4
-19 5 -98 1 -175z m1926 -775 c68 -34 76 -54 90 -201 16 -175 30 -557 30 -799
0 -190 0 -194 -16 -155 -14 34 -17 96 -18 445 0 351 -3 414 -18 470 -28 105
-38 130 -50 130 -7 0 -32 16 -56 35 -24 19 -50 35 -58 35 -7 0 -30 -15 -50
-33 -32 -30 -37 -41 -41 -93 -3 -32 1 -122 8 -200 10 -116 10 -151 -1 -193
-11 -45 -11 -52 5 -70 16 -18 18 -43 15 -303 -2 -156 -3 -312 -2 -348 1 -36 2
-81 1 -100 0 -19 3 -67 7 -105 6 -58 5 -73 -8 -83 -13 -11 -19 -10 -36 7 -20
20 -21 32 -21 289 0 147 -5 344 -10 437 -28 499 -32 663 -15 694 8 17 15 41
15 55 0 39 10 55 49 81 46 32 124 34 180 5z m407 1 c34 -16 45 -27 59 -67 10
-27 24 -64 32 -83 15 -38 18 -132 4 -146 -4 -6 -5 -37 -1 -70 22 -165 33 -543
25 -847 -4 -175 -11 -316 -15 -313 -25 15 -33 142 -44 710 -14 653 -13 645
-72 700 -34 32 -74 32 -103 1 -38 -41 -45 -129 -26 -341 9 -102 14 -194 10
-205 -4 -11 -2 -86 4 -168 13 -177 17 -591 6 -684 -8 -77 -21 -85 -62 -42
l-23 25 1 292 c1 180 -2 317 -9 356 -10 56 -9 67 4 83 15 15 15 25 3 85 -10
47 -14 147 -14 323 0 247 1 257 24 308 44 98 107 124 197 83z m580 -210 c-14
-195 -19 -241 -27 -241 -26 0 -29 199 -5 284 25 84 40 63 32 -43z m-851 -1276
c4 -49 3 -65 -4 -54 -20 32 -30 108 -23 175 l7 69 7 -60 c5 -33 11 -91 13
-130z"/>
<path d="M3169 5501 c-20 -16 -21 -21 -10 -35 10 -12 31 -16 82 -16 67 0 69
-1 91 -35 35 -52 88 -72 88 -33 0 13 -20 41 -49 69 -70 67 -155 88 -202 50z"/>
<path d="M2591 5241 c-11 -11 -23 -37 -27 -57 -6 -34 -4 -40 25 -66 37 -33 56
-35 71 -9 17 33 12 116 -8 134 -24 22 -38 21 -61 -2z"/>
<path d="M2960 5209 c0 -28 51 -96 88 -117 35 -19 41 -20 52 -7 10 13 8 22
-16 56 -27 39 -54 59 -101 73 -15 5 -23 3 -23 -5z"/>
<path d="M2619 4780 c-41 -41 -53 -47 -64 -30 -11 17 -31 11 -45 -15 -11 -20
-10 -28 4 -49 32 -50 56 -58 122 -44 l59 13 8 55 c10 62 -3 110 -29 110 -8 0
-33 -18 -55 -40z"/>
<path d="M3071 4599 l-33 -20 5 -77 c3 -42 10 -117 15 -167 6 -52 6 -141 1
-210 -11 -161 -1 -378 19 -434 14 -39 14 -65 3 -246 -16 -250 -7 -327 44 -375
58 -54 75 4 75 250 0 102 -5 202 -11 223 -8 28 -7 42 1 53 8 9 10 38 6 91 -3
43 -10 245 -16 448 -5 204 -12 393 -16 420 -10 70 -32 81 -93 44z"/>
<path d="M3249 4593 c-19 -46 -22 -165 -10 -298 9 -94 9 -135 1 -160 -9 -26
-8 -40 1 -57 8 -15 14 -83 15 -198 2 -96 4 -191 5 -210 1 -19 -3 -79 -9 -134
-8 -77 -8 -128 3 -235 28 -267 25 -251 51 -257 26 -7 72 13 87 38 8 11 7 50
-2 127 -8 61 -11 136 -7 167 3 30 1 85 -5 122 -8 43 -11 172 -10 357 2 221 -2
323 -15 425 -10 83 -14 163 -10 208 6 71 5 73 -24 102 -38 37 -57 38 -71 3z"/>
<path d="M2926 4573 c-2 -10 -10 -83 -17 -161 -13 -144 -13 -144 -32 -120 -20
24 -20 22 -1 186 5 42 3 56 -11 72 -23 25 -37 25 -60 0 -17 -19 -18 -27 -8
-87 8 -46 9 -72 1 -86 -7 -14 -6 -32 2 -64 9 -32 11 -113 8 -297 -4 -176 -2
-259 6 -272 7 -12 11 -95 11 -234 0 -186 3 -219 18 -247 10 -18 20 -33 22 -33
12 0 45 67 45 91 0 15 -9 38 -20 52 -18 23 -19 28 -6 59 27 63 29 145 7 271
-12 66 -21 149 -20 185 1 68 25 342 28 310 0 -10 1 -21 2 -25 0 -5 7 -15 15
-24 12 -14 13 -24 2 -62 -10 -40 -10 -54 5 -94 21 -58 22 -190 6 -512 -11
-205 -11 -225 5 -236 9 -7 16 -23 16 -37 0 -13 6 -32 13 -42 13 -17 14 -17 30
-1 9 9 17 29 17 45 0 16 5 41 10 56 9 22 8 29 -5 37 -14 7 -15 26 -9 145 4 78
1 236 -6 367 -7 127 -13 345 -13 485 1 215 -2 258 -15 273 -8 9 -21 17 -28 17
-7 0 -15 -8 -18 -17z"/>
<path d="M3434 4523 c-7 -55 -12 -462 -7 -603 2 -36 3 -87 3 -115 0 -27 3
-183 7 -345 8 -288 9 -296 32 -338 30 -51 35 -45 51 61 19 126 16 705 -5 1212
-8 167 -13 185 -56 185 -14 0 -19 -13 -25 -57z"/>
<path d="M2590 4293 c0 -10 9 -51 19 -92 14 -54 17 -80 10 -99 -12 -31 -37
-51 -65 -52 -26 0 -57 -33 -52 -56 6 -30 52 -57 86 -49 70 15 115 78 115 162
0 48 -33 161 -56 191 -15 19 -57 15 -57 -5z"/>
<path d="M2388 3918 c-13 -43 -15 -334 -3 -347 8 -8 36 12 58 40 27 37 32 120
13 228 -23 129 -45 155 -68 79z"/>
<path d="M2885 2914 c-54 -19 -91 -62 -110 -128 -9 -30 -25 -66 -35 -79 -19
-23 -19 -33 -10 -163 5 -77 15 -363 21 -637 l11 -498 -21 -23 c-30 -32 -26
-51 22 -100 48 -48 86 -59 139 -42 l33 11 0 325 c0 179 -7 503 -14 720 l-14
395 37 72 c37 75 44 110 26 144 -12 22 -29 22 -85 3z"/>
<path d="M3314 2911 c-72 -33 -86 -64 -94 -209 -8 -151 5 -602 22 -751 6 -58
12 -223 13 -366 1 -267 5 -296 43 -339 9 -10 30 -25 46 -33 27 -14 30 -14 55
11 26 26 26 29 29 189 2 94 -3 237 -12 342 -9 99 -16 293 -16 430 -1 138 -2
329 -3 425 -1 159 1 180 21 230 12 30 22 58 22 62 0 7 -56 28 -74 28 -6 0 -29
-9 -52 -19z"/>
<path d="M2434 2868 l-40 -20 -33 -133 -34 -134 7 -293 c4 -161 12 -331 19
-378 6 -47 11 -205 12 -352 0 -195 3 -270 12 -279 7 -7 32 -13 55 -13 l43 -1
7 75 c16 192 21 499 8 560 -9 43 -10 64 -2 72 7 7 5 21 -9 48 -18 34 -19 46
-9 180 11 150 7 211 -16 295 -13 46 -12 58 6 125 11 41 20 91 20 111 0 28 6
41 25 53 37 25 50 54 34 82 -15 30 -49 30 -105 2z"/>
<path d="M2044 2826 c-24 -26 -48 -64 -58 -92 -23 -73 -30 -220 -16 -389 7
-82 15 -334 20 -560 6 -339 10 -419 24 -461 13 -41 21 -53 41 -57 20 -3 30 2
46 25 20 27 20 37 15 271 -4 133 -11 349 -17 480 -8 162 -8 242 -1 249 7 7 7
21 0 42 -5 17 -9 108 -9 201 l1 170 32 45 c17 25 40 58 52 73 18 24 18 29 6
37 -8 5 -33 10 -54 10 -34 0 -46 -7 -82 -44z"/>
<path d="M3074 2714 c-4 -44 -1 -117 10 -208 21 -181 25 -277 31 -758 5 -344
8 -403 22 -433 20 -41 27 -43 48 -11 36 54 36 241 0 391 -14 58 -18 149 -24
535 -6 446 -7 467 -27 505 -34 64 -51 58 -60 -21z"/>
<path d="M2602 2721 c-15 -48 -15 -177 -1 -481 5 -129 13 -372 17 -540 7 -282
9 -308 28 -340 50 -86 61 -6 46 334 -7 149 -18 450 -24 669 -12 396 -12 397
-33 397 -17 0 -25 -9 -33 -39z"/>
<path d="M2225 2548 c-7 -75 0 -392 10 -408 4 -6 1 -51 -6 -101 -9 -68 -9 -93
0 -102 6 -6 11 -47 11 -101 1 -50 5 -111 11 -136 21 -99 22 -119 5 -144 -20
-32 -20 -55 0 -77 14 -16 14 -20 -1 -49 -25 -48 -16 -90 23 -113 31 -18 35
-19 50 -3 20 19 20 48 8 301 -4 94 -8 224 -7 290 1 66 -3 135 -8 152 -6 22 -6
35 1 39 6 4 7 18 3 33 -4 14 -10 112 -14 216 -5 167 -9 194 -27 225 -34 58
-51 52 -59 -22z"/>
</g>

</svg>
